<?xml version="1.0" encoding="UTF-8"?><svg xmlns="http://www.w3.org/2000/svg" viewBox="0 0 51.32 53.71"><defs><style>.cls-1{fill:#282828;}.cls-1,.cls-2{stroke-width:0px;}.cls-2{fill:#fff;}</style></defs><g id="Layer_2"><circle class="cls-2" cx="24.55" cy="26.85" r="21.67"/></g><g id="Layer_1"><path class="cls-1" d="M28.31,9.35c.94,0,1.88.05,2.81.09.61.02,1.22.11,1.79.17l-.04,5.64h-.45c-.62,0-1.24,0-1.86,0-.46,0-.93,0-1.39.02-1.49.05-2.59.61-2.67,2.48-.05,1.34-.08,4.31-.08,4.47.08,0,1.55,0,3.04,0,.74,0,1.47,0,1.97,0h1.21c-.3,2.16-.58,4.24-.88,6.33h-5.34l-.12,15.81h-6.56l.12-15.84h-5.36l.05-6.3h5.39v-.47c.01-1.27,0-2.54.05-3.81.02-.8.06-1.62.2-2.41.36-1.93,1.26-3.55,2.87-4.7,1.41-1.01,3.02-1.43,4.73-1.47.17,0,.35,0,.52,0Z"/></g></svg>