<?xml version="1.0" encoding="UTF-8"?><svg xmlns="http://www.w3.org/2000/svg" viewBox="0 0 51.32 53.71"><defs><style>.cls-1{fill:#282828;}.cls-1,.cls-2{stroke-width:0px;}.cls-2{fill:#fff;}</style></defs><g id="Layer_2"><circle class="cls-2" cx="25.65" cy="26.86" r="21.67"/></g><g id="Layer_1"><path class="cls-1" d="M33.98,16.75s.02,0,.02,0c1.02,0,1.85.83,1.84,1.87,0,1.02-.85,1.85-1.88,1.85-1.03-.01-1.85-.85-1.84-1.87,0-1.03.84-1.85,1.86-1.85Z"/><path class="cls-1" d="M40.97,19.14c.23,2.44.38,13.96-.34,16.66-.96,3.53-3.27,5.62-6.84,6.2-1.34.22-4.94.35-8.55.35s-7.37-.14-8.61-.46c-3.51-.91-5.61-3.2-6.17-6.76-.42-2.61-.46-14.76.29-17.39.98-3.43,3.28-5.45,6.75-6.02,1.57-.26,4.65-.35,7.76-.35,2.89,0,5.81.08,7.57.17,2.13.11,4.07.8,5.66,2.31,1.51,1.44,2.28,3.25,2.47,5.29ZM37.99,34.62c.44-2.72.44-12.67.19-15.22-.28-2.72-1.94-4.52-4.64-4.94-1.33-.2-4.55-.29-7.75-.29s-6.16.08-7.51.23c-2.7.31-4.52,1.98-4.95,4.67-.44,2.85-.44,13.5-.11,15.64.34,2.23,1.6,3.76,3.82,4.38,1.2.34,4.8.46,8.33.46,3.25,0,6.44-.1,7.64-.23,2.73-.3,4.53-1.98,4.96-4.69"/><path class="cls-1" d="M25.73,18.92c4.38,0,7.91,3.56,7.88,7.95-.03,4.38-3.62,7.94-8.01,7.94s-7.91-3.56-7.88-7.95c.03-4.39,3.62-7.95,8.01-7.94ZM25.61,31.99c2.82,0,5.13-2.27,5.18-5.09.05-2.85-2.21-5.16-5.05-5.19-.02,0-.03,0-.05,0-2.82,0-5.13,2.27-5.18,5.09-.05,2.84,2.21,5.16,5.05,5.19.02,0,.03,0,.05,0"/></g></svg>