<?xml version="1.0" encoding="UTF-8"?>
<svg id="Layer_2" data-name="Layer 2" xmlns="http://www.w3.org/2000/svg" viewBox="0 0 194.7 206.05">
  <defs>
    <style>
      .cls-1 {
        fill: #2f0d00;
      }

      .cls-1, .cls-2, .cls-3 {
        stroke-width: 0px;
      }

      .cls-2 {
        fill: #00a657;
      }

      .cls-3 {
        fill: #fff;
      }
    </style>
  </defs>
  <g id="Layer_4" data-name="Layer 4">
    <g>
      <g>
        <path class="cls-2" d="M71.61,36.59c-.7,0-1.41-.03-2.1-.09l.17-1.99h-.01c-.4,0-.63.16-.7.25.36-.41,1.89-3.37,2.06-3.86.27-.9.3-2.02.34-3.1.02-.62.04-1.26.11-1.88.39-3.63,1.17-8.3,3.76-12.16,2.87-4.29,7.6-7.06,11.4-9.01,3.19-1.63,7.01-3.35,11.17-3.73.17-.02.34-.03.51-.03.53,0,.97.11,1.34.35.69.43.94,1.18,1.08,1.58,1.14,3.31,1.78,6.75,1.91,10.23.08,2.04.01,5.07-1.39,7.69-1.18,2.21-3.1,3.83-4.96,5.3-8.91,7.03-16.98,10.45-24.67,10.45h0Z"/>
        <path class="cls-1" d="M98.3,2c.29,0,.57.04.81.19.37.23.53.66.67,1.06,1.1,3.2,1.73,6.56,1.85,9.94.09,2.46-.11,5-1.27,7.19-1.07,2.01-2.88,3.56-4.7,4.99-6.92,5.46-15.23,10.23-24.05,10.23-.67,0-1.34-.03-2.01-.08,0,0,0,0,0,0,.29,0,2.24-3.85,2.38-4.31.47-1.6.31-3.52.48-5.17.43-4.03,1.28-8.26,3.59-11.71,2.61-3.89,6.79-6.51,11.02-8.67,3.39-1.73,6.98-3.28,10.8-3.62.14-.01.28-.02.42-.02M79.71,27.01l6.78-8.51c.25-.31.52-.61.8-.9,1.6-1.63,2.55-3.04,6.13-6.56l-5.5,4.35c-1.62,1.28-3.05,2.78-4.22,4.47-1.93,2.79-3.6,5.98-3.99,7.16M98.3,0c-.2,0-.4.01-.6.03-4.32.39-8.25,2.16-11.53,3.83-3.9,2-8.77,4.86-11.77,9.34-2.71,4.05-3.52,8.87-3.92,12.61-.07.65-.09,1.31-.11,1.95-.03,1.04-.06,2.03-.29,2.81-.22.56-1.36,2.76-1.8,3.43-.37.33-.63.8-.67,1.33-.09,1.1.73,2.07,1.83,2.16.72.06,1.45.09,2.18.09,7.92,0,16.2-3.49,25.29-10.66,1.86-1.47,3.95-3.23,5.22-5.62,1.52-2.84,1.58-6.04,1.5-8.2-.13-3.58-.79-7.12-1.96-10.51-.16-.48-.51-1.48-1.5-2.1-.53-.34-1.15-.5-1.87-.5h0Z"/>
      </g>
      <g>
        <g>
          <path class="cls-3" d="M37.2,112.22c-4.08,0-7.88-.9-11.31-2.66-3.39-1.75-6.47-4.12-9.13-7.07-2.65-2.92-4.98-6.29-6.94-10.01-1.95-3.69-3.6-7.58-4.91-11.55-1.31-3.97-2.3-7.96-2.94-11.85-.64-3.9-.96-7.55-.96-10.86,0-2,.08-4.01.25-5.98.17-2.04.64-3.89,1.39-5.49.78-1.67,1.96-3.02,3.51-4.02,1.56-1,3.69-1.51,6.34-1.51s4.87.3,6.67.9c1.87.62,3.39,1.62,4.5,2.96,1.09,1.31,1.88,2.94,2.35,4.85.45,1.84.68,4.02.68,6.49,0,1.22-.08,2.83-.25,4.79-.16,1.87-.16,3.71,0,5.47.15,1.68.58,3.14,1.27,4.34.59,1.02,1.57,1.5,3.08,1.5,3.12,0,5.34-.84,6.6-2.5,1.33-1.75,2-4.13,2-7.1,0-2.26-.18-4.57-.54-6.85-.37-2.37-.56-4.78-.56-7.15,0-3.53.76-5.93,2.33-7.34,1.54-1.38,3.98-2.06,7.47-2.06.97,0,2.18.1,3.59.31,1.41.21,2.84.54,4.26.98,1.44.46,2.75,1.05,3.92,1.75,1.28.78,2.17,1.74,2.65,2.86.38,1.05.63,2.09.77,3.16.14,1.04.21,2.06.21,3.03,0,3.97-.32,8.09-.96,12.25-.64,4.16-1.49,8.34-2.52,12.44-1.04,4.13-2.28,8.22-3.68,12.14-1.4,3.93-2.92,7.76-4.53,11.37-.67,1.61-1.45,3.17-2.3,4.61-.87,1.45-1.85,2.77-2.93,3.92-1.12,1.2-2.46,2.15-3.97,2.83-1.52.69-3.34,1.04-5.41,1.04Z"/>
          <path class="cls-1" d="M48.1,40.52c.93,0,2.08.1,3.45.3,1.37.2,2.73.52,4.1.95,1.37.43,2.6.98,3.7,1.65,1.1.67,1.85,1.47,2.25,2.4.33.93.56,1.9.7,2.9.13,1,.2,1.97.2,2.9,0,3.93-.32,7.97-.95,12.1-.63,4.13-1.47,8.25-2.5,12.35-1.04,4.1-2.25,8.12-3.65,12.05-1.4,3.93-2.9,7.7-4.5,11.3-.67,1.6-1.42,3.1-2.25,4.5s-1.77,2.65-2.8,3.75c-1.04,1.1-2.25,1.97-3.65,2.6-1.4.63-3.07.95-5,.95-3.93,0-7.55-.85-10.85-2.55-3.3-1.7-6.25-3.98-8.85-6.85-2.6-2.87-4.87-6.13-6.8-9.8-1.93-3.67-3.55-7.46-4.85-11.4-1.3-3.93-2.27-7.83-2.9-11.7-.63-3.87-.95-7.43-.95-10.7,0-2,.08-3.97.25-5.9.17-1.93.6-3.65,1.3-5.15.7-1.5,1.75-2.7,3.15-3.6,1.4-.9,3.33-1.35,5.8-1.35s4.65.28,6.35.85c1.7.57,3.05,1.45,4.05,2.65s1.72,2.68,2.15,4.45c.43,1.77.65,3.85.65,6.25,0,1.2-.08,2.77-.25,4.7-.17,1.93-.17,3.82,0,5.65.17,1.83.63,3.42,1.4,4.75.77,1.33,2.08,2,3.95,2,3.47,0,5.93-.96,7.4-2.9,1.47-1.93,2.2-4.5,2.2-7.7,0-2.33-.18-4.67-.55-7-.37-2.33-.55-4.67-.55-7,0-3.2.67-5.4,2-6.6,1.33-1.2,3.6-1.8,6.8-1.8M48.1,38.52c-3.75,0-6.41.76-8.14,2.31-1.79,1.61-2.66,4.25-2.66,8.09,0,2.43.19,4.89.57,7.31.35,2.23.53,4.48.53,6.69,0,2.74-.6,4.92-1.79,6.49-1.08,1.42-2.98,2.11-5.81,2.11-1.46,0-1.95-.53-2.22-1-.62-1.08-1-2.4-1.14-3.93-.16-1.71-.16-3.49,0-5.3.17-2.02.26-3.62.26-4.87,0-2.55-.24-4.81-.71-6.73-.51-2.06-1.37-3.83-2.56-5.25-1.24-1.48-2.9-2.58-4.95-3.27-1.9-.63-4.25-.95-6.98-.95s-5.16.56-6.88,1.67c-1.72,1.1-3.02,2.6-3.88,4.44-.8,1.71-1.3,3.67-1.48,5.82-.17,1.99-.26,4.04-.26,6.07,0,3.37.33,7.08.98,11.02.65,3.95,1.65,7.99,2.97,12,1.33,4.03,3.01,7.97,4.98,11.71,2,3.79,4.38,7.23,7.09,10.21,2.75,3.03,5.92,5.48,9.42,7.28,3.57,1.84,7.53,2.77,11.77,2.77,2.21,0,4.17-.38,5.83-1.13,1.63-.73,3.07-1.76,4.28-3.05,1.13-1.2,2.16-2.58,3.06-4.1.88-1.48,1.68-3.08,2.38-4.75,1.6-3.59,3.13-7.44,4.54-11.4,1.41-3.95,2.65-8.07,3.71-12.23,1.04-4.13,1.89-8.35,2.54-12.54.65-4.21.97-8.39.97-12.4,0-1.02-.07-2.08-.22-3.16-.15-1.14-.42-2.25-.8-3.31l-.02-.06-.03-.06c-.57-1.32-1.59-2.44-3.05-3.32-1.23-.74-2.62-1.37-4.13-1.85-1.47-.47-2.96-.81-4.42-1.02-1.48-.22-2.7-.32-3.74-.32h0Z"/>
        </g>
        <g>
          <path class="cls-3" d="M79.3,113.82c-2.82,0-5.22-.51-7.12-1.52-1.9-1-3.46-2.37-4.65-4.06-1.17-1.67-2.02-3.64-2.51-5.86-.48-2.16-.72-4.47-.72-6.87,0-1.44.1-2.9.31-4.34.32-2.67.51-5.36.54-7.97.03-2.66.05-5.36.05-8.09v-6.5c0-2.3.07-4.59.2-6.81.13-2.26.37-4.53.71-6.74.34-2.25.86-4.42,1.54-6.47.52-1.48,1.25-2.7,2.19-3.64s2.01-1.64,3.24-2.12c1.17-.46,2.44-.77,3.76-.91,1.27-.14,2.57-.21,3.86-.21,2.7,0,4.95.52,6.7,1.54,1.87,1.09,3.04,3.15,3.49,6.12.87,5.49,1.29,11.13,1.26,16.76-.03,5.6-.05,11.13-.05,16.59,0,2.14.03,4.23.1,6.22.07,2.07.1,4.15.1,6.18,0,1.68-.28,3.6-.83,5.7-.55,2.11-1.38,4.12-2.45,5.99-1.09,1.9-2.44,3.53-4.02,4.87-1.68,1.42-3.59,2.14-5.7,2.14Z"/>
          <path class="cls-1" d="M80.7,42.72c2.53,0,4.6.47,6.2,1.4,1.6.93,2.6,2.73,3,5.4.87,5.47,1.28,11,1.25,16.6-.03,5.6-.05,11.13-.05,16.6,0,2.13.03,4.22.1,6.25.07,2.03.1,4.08.1,6.15,0,1.6-.27,3.42-.8,5.45-.53,2.03-1.32,3.95-2.35,5.75-1.03,1.8-2.3,3.33-3.8,4.6-1.5,1.27-3.18,1.9-5.05,1.9-2.67,0-4.88-.47-6.65-1.4-1.77-.93-3.2-2.18-4.3-3.75-1.1-1.57-1.88-3.4-2.35-5.5-.47-2.1-.7-4.32-.7-6.65,0-1.4.1-2.8.3-4.2.33-2.73.52-5.43.55-8.1.03-2.67.05-5.37.05-8.1v-6.5c0-2.27.07-4.52.2-6.75.13-2.23.37-4.45.7-6.65.33-2.2.83-4.3,1.5-6.3.46-1.33,1.12-2.42,1.95-3.25s1.8-1.47,2.9-1.9c1.1-.43,2.27-.71,3.5-.85,1.23-.13,2.48-.2,3.75-.2M80.7,40.72c-1.33,0-2.66.07-3.96.21-1.41.15-2.76.48-4.02.98-1.36.54-2.56,1.33-3.58,2.35-1.05,1.05-1.86,2.39-2.42,4.01-.71,2.12-1.24,4.36-1.59,6.66-.34,2.24-.58,4.54-.72,6.83-.14,2.24-.2,4.55-.2,6.87v6.5c0,2.63-.02,5.35-.05,8.08-.03,2.58-.21,5.23-.54,7.88-.21,1.45-.32,2.95-.32,4.44,0,2.47.25,4.85.75,7.08.52,2.35,1.42,4.44,2.67,6.22,1.28,1.82,2.96,3.29,5,4.37,2.04,1.08,4.6,1.63,7.58,1.63,2.34,0,4.48-.8,6.34-2.37,1.67-1.41,3.1-3.13,4.24-5.13,1.12-1.95,1.97-4.05,2.55-6.24.57-2.19.87-4.19.87-5.96,0-2.05-.03-4.14-.1-6.21-.07-1.97-.1-4.05-.1-6.19,0-5.6.02-11.18.05-16.59.03-5.68-.4-11.37-1.27-16.93-.49-3.27-1.83-5.56-3.97-6.81-1.91-1.11-4.33-1.67-7.21-1.67h0Z"/>
        </g>
        <g>
          <path class="cls-3" d="M127.5,116.62c-1.32,0-2.88-.03-4.64-.1-1.75-.07-3.59-.22-5.49-.46-1.9-.24-3.8-.6-5.67-1.07-1.89-.48-3.67-1.13-5.29-1.92-1.66-.81-3.09-1.82-4.27-2.99s-2.07-2.71-2.51-4.41c-.61-2.58-1.12-5.47-1.52-8.63-.4-3.13-.71-6.4-.91-9.72-.2-3.31-.34-6.58-.4-9.74-.07-3.16-.1-6.08-.1-8.67,0-1.34.02-3.09.05-5.27.03-2.19.17-4.46.41-6.74.24-2.29.58-4.51,1.02-6.6.47-2.23,1.13-3.9,2.03-5.09,1.18-1.63,2.87-2.79,5-3.46,2.02-.63,3.97-.94,5.8-.94,2.05,0,3.84.14,5.33.42,1.58.3,2.93.86,4.02,1.69,1.13.86,1.95,2.08,2.45,3.64.46,1.46.7,3.33.7,5.55,0,2.11-.16,4.24-.46,6.34-.3,2.07-.62,4.13-.95,6.17-.33,2.03-.65,4.07-.95,6.13-.29,2.01-.44,4.08-.44,6.16,0,1.53.16,3.05.48,4.54.29,1.36,1,2.5,2.17,3.5,1.68,1.42,3.53,2.71,5.5,3.84,1.97,1.13,4.01,2.06,6.08,2.77,3.01,1,5.13,2.5,6.28,4.43,1.12,1.89,1.69,4.38,1.69,7.41,0,2.46-.38,4.57-1.14,6.26-.77,1.72-1.87,3.11-3.27,4.15-1.37,1.01-3.03,1.74-4.92,2.17-1.83.42-3.87.62-6.07.62Z"/>
          <path class="cls-1" d="M111,41.82c2,0,3.72.13,5.15.4,1.43.27,2.63.77,3.6,1.5.97.73,1.67,1.78,2.1,3.15.43,1.37.65,3.12.65,5.25s-.15,4.13-.45,6.2c-.3,2.07-.62,4.12-.95,6.15-.33,2.03-.65,4.08-.95,6.15-.3,2.07-.45,4.17-.45,6.3,0,1.6.17,3.18.5,4.75.33,1.57,1.17,2.92,2.5,4.05,1.73,1.47,3.62,2.78,5.65,3.95,2.03,1.17,4.12,2.12,6.25,2.85,2.8.93,4.71,2.27,5.75,4,1.03,1.73,1.55,4.04,1.55,6.9,0,2.33-.35,4.28-1.05,5.85-.7,1.57-1.68,2.82-2.95,3.75-1.27.93-2.78,1.6-4.55,2-1.77.4-3.72.6-5.85.6-1.33,0-2.87-.03-4.6-.1-1.73-.07-3.53-.22-5.4-.45-1.87-.23-3.72-.58-5.55-1.05-1.83-.47-3.53-1.08-5.1-1.85-1.57-.77-2.9-1.7-4-2.8s-1.85-2.42-2.25-3.95c-.6-2.53-1.1-5.37-1.5-8.5-.4-3.13-.7-6.35-.9-9.65-.2-3.3-.33-6.53-.4-9.7-.07-3.17-.1-6.05-.1-8.65,0-1.33.02-3.08.05-5.25.03-2.17.17-4.38.4-6.65.23-2.27.57-4.43,1-6.5.43-2.07,1.05-3.63,1.85-4.7,1.07-1.47,2.57-2.5,4.5-3.1,1.93-.6,3.77-.9,5.5-.9M111,39.82c-1.93,0-3.98.33-6.09.99-2.35.73-4.2,2.02-5.53,3.83-.97,1.29-1.69,3.09-2.19,5.47-.45,2.12-.79,4.38-1.03,6.71-.24,2.31-.38,4.6-.41,6.82-.03,2.11-.05,3.88-.05,5.28,0,2.6.03,5.53.1,8.69.07,3.17.2,6.46.4,9.78.2,3.33.51,6.63.91,9.78.41,3.19.92,6.12,1.54,8.71.5,1.92,1.43,3.55,2.78,4.9,1.25,1.25,2.78,2.32,4.54,3.18,1.68.82,3.53,1.49,5.48,1.99,1.91.48,3.86.85,5.79,1.1,1.92.24,3.8.4,5.57.46,1.77.07,3.34.1,4.68.1,2.27,0,4.39-.22,6.29-.65,2.03-.46,3.81-1.25,5.29-2.34,1.54-1.14,2.75-2.67,3.59-4.54.81-1.82,1.22-4.06,1.22-6.67,0-3.22-.62-5.88-1.83-7.92-1.28-2.15-3.58-3.79-6.84-4.87-1.99-.68-3.97-1.59-5.89-2.69-1.92-1.1-3.72-2.36-5.35-3.74-.99-.84-1.6-1.81-1.84-2.94-.3-1.42-.46-2.88-.46-4.33,0-2.02.14-4.05.43-6.01.31-2.12.62-4.17.94-6.11.34-2.08.66-4.16.96-6.19.31-2.15.47-4.33.47-6.49,0-2.36-.24-4.27-.74-5.85-.56-1.76-1.5-3.15-2.8-4.14-1.21-.92-2.71-1.55-4.44-1.87-1.55-.29-3.41-.43-5.52-.43h0Z"/>
        </g>
        <g>
          <path class="cls-3" d="M158.6,113.92c-2.33,0-4.33-.35-5.94-1.03-1.63-.69-3.02-1.67-4.11-2.91-1.08-1.22-1.95-2.72-2.59-4.47-.62-1.68-1.14-3.59-1.54-5.71-1.07-5.35-1.85-10.83-2.31-16.3-.47-5.46-.7-10.97-.7-16.38,0-1.24.07-2.78.2-4.57.13-1.83.37-3.72.71-5.6.34-1.91.79-3.74,1.33-5.43.57-1.78,1.31-3.21,2.19-4.25,1.5-1.86,3.16-3.09,4.91-3.65,1.66-.53,3.56-.8,5.65-.8,3.97,0,8.2.86,12.56,2.57,4.35,1.7,8.39,4.09,12.03,7.11,3.64,3.03,6.69,6.65,9.07,10.77,2.41,4.17,3.63,8.76,3.63,13.65,0,4.13-1.06,8.45-3.15,12.83-2.07,4.34-4.78,8.34-8.07,11.9-3.29,3.56-7.06,6.52-11.2,8.8-4.19,2.3-8.46,3.47-12.68,3.47ZM166.4,66.42c-.19,0-.62,0-1.02,1.02-.4,1.02-.7,2.19-.89,3.48-.19,1.31-.29,2.59-.29,3.8v2.4c0,.54.1,1.4.29,2.54.19,1.14.48,2.3.86,3.45.37,1.11.83,2.06,1.37,2.85.6.87,1.11.87,1.28.87.61,0,1.08-.26,1.49-.83.53-.74.97-1.65,1.31-2.72.35-1.11.61-2.23.76-3.34.16-1.12.24-2,.24-2.61,0-.86-.14-1.93-.42-3.18-.28-1.26-.7-2.51-1.24-3.71-.52-1.17-1.15-2.18-1.85-3.01-.57-.67-1.19-1-1.89-1Z"/>
          <path class="cls-1" d="M156.4,43.82c3.87,0,7.93.83,12.2,2.5,4.27,1.67,8.18,3.98,11.75,6.95,3.57,2.97,6.52,6.47,8.85,10.5,2.33,4.04,3.5,8.42,3.5,13.15,0,4-1.02,8.13-3.05,12.4-2.03,4.27-4.67,8.15-7.9,11.65-3.23,3.5-6.88,6.37-10.95,8.6-4.07,2.23-8.13,3.35-12.2,3.35-2.2,0-4.05-.32-5.55-.95-1.5-.63-2.75-1.52-3.75-2.65-1-1.13-1.8-2.52-2.4-4.15-.6-1.63-1.1-3.48-1.5-5.55-1.07-5.33-1.83-10.73-2.3-16.2-.47-5.47-.7-10.9-.7-16.3,0-1.2.07-2.7.2-4.5.13-1.8.37-3.63.7-5.5.33-1.87.77-3.63,1.3-5.3.53-1.67,1.2-2.97,2-3.9,1.4-1.73,2.88-2.85,4.45-3.35s3.35-.75,5.35-.75M168,87.82c.93,0,1.7-.42,2.3-1.25.6-.83,1.08-1.83,1.45-3,.37-1.17.63-2.33.8-3.5.17-1.17.25-2.08.25-2.75,0-.93-.15-2.07-.45-3.4-.3-1.33-.73-2.63-1.3-3.9-.57-1.27-1.23-2.35-2-3.25-.77-.9-1.65-1.35-2.65-1.35-.87,0-1.52.55-1.95,1.65-.43,1.1-.75,2.33-.95,3.7-.2,1.37-.3,2.68-.3,3.95v2.4c0,.6.1,1.5.3,2.7.2,1.2.5,2.4.9,3.6.4,1.2.9,2.23,1.5,3.1.6.87,1.3,1.3,2.1,1.3M156.4,41.82c-2.2,0-4.2.28-5.96.84-1.93.62-3.74,1.95-5.38,3.98-.98,1.15-1.75,2.64-2.37,4.57-.56,1.73-1.02,3.61-1.36,5.56-.34,1.92-.59,3.84-.72,5.7-.14,1.82-.21,3.39-.21,4.65,0,5.44.24,10.99.71,16.47.47,5.51,1.25,11.03,2.33,16.42.42,2.15.95,4.12,1.58,5.85.68,1.86,1.62,3.47,2.78,4.78,1.19,1.35,2.7,2.42,4.47,3.17,1.74.73,3.87,1.11,6.33,1.11,4.39,0,8.82-1.21,13.16-3.6,4.23-2.33,8.09-5.35,11.46-9,3.35-3.63,6.13-7.72,8.24-12.15,2.15-4.52,3.24-8.98,3.24-13.26,0-5.07-1.27-9.83-3.77-14.15-2.44-4.22-5.57-7.93-9.3-11.04-3.72-3.09-7.86-5.54-12.3-7.27-4.48-1.75-8.83-2.64-12.93-2.64h0ZM166.55,67.36h0,0ZM168,85.82c-.08,0-.26-.15-.45-.44-.49-.71-.91-1.58-1.25-2.59-.37-1.09-.64-2.2-.83-3.3-.23-1.35-.27-2.03-.27-2.37v-2.4c0-1.17.09-2.4.28-3.66.18-1.21.46-2.31.83-3.25.08-.2.15-.32.19-.38.26.02.6.14,1.03.64.64.75,1.21,1.68,1.7,2.77.51,1.14.91,2.33,1.18,3.52.27,1.18.4,2.18.4,2.96,0,.57-.08,1.4-.23,2.47-.15,1.05-.4,2.13-.73,3.18-.3.96-.69,1.78-1.16,2.43-.3.42-.52.42-.68.42h0Z"/>
        </g>
        <g>
          <path class="cls-3" d="M66.08,201.41c-1.66,0-3.15-.12-4.44-.37-1.36-.26-2.56-.73-3.57-1.4-1.06-.71-1.88-1.72-2.42-2.99-.52-1.22-.78-2.78-.78-4.64s.25-3.61.74-5.32c.47-1.64,1-3.27,1.57-4.87.55-1.53,1.07-3.11,1.53-4.69.44-1.5.66-3.06.66-4.62v-1.15c0-.42-.04-.84-.13-1.24-.08-.35-.19-.66-.33-.9h0c-.2.07-.69.45-1.36,1.71-.78,1.47-1.56,3.17-2.3,5.05-.8,2.01-1.5,3.84-2.14,5.58-.74,1.98-1.38,3.21-2.03,3.86-.35.42-.76.79-1.19,1.05-.49.29-1.1.44-1.82.44s-1.42-.06-2.06-.16c-.81-.13-1.53-.51-2.14-1.13-.79-.87-1.5-2.19-2.18-4.06-.63-1.72-1.35-3.48-2.12-5.24-.77-1.73-1.64-3.29-2.6-4.62-.81-1.13-1.72-1.68-2.79-1.68-.34,0-.5.06-.53.08-.04.11-.17.46-.17,1.22,0,1.61.13,3.24.39,4.84.26,1.66.55,3.32.85,4.98.3,1.67.58,3.33.85,4.96.27,1.69.41,3.44.41,5.21s-.34,3.19-1.02,4.43c-.67,1.23-1.58,2.25-2.7,3.04-1.1.77-2.37,1.34-3.78,1.7-1.37.35-2.81.53-4.3.53-3.69,0-6.58-.83-8.58-2.48-1.97-1.61-3.4-3.68-4.26-6.14-.83-2.39-1.29-5.07-1.36-7.96-.07-2.75-.1-5.49-.1-8.12,0-3.02.07-6.2.2-9.44.13-3.25.35-6.58.65-9.9s.71-6.62,1.21-9.86c.5-3.26,1.17-6.41,1.97-9.36.79-2.94,2.04-5.06,3.72-6.29,1.67-1.22,4.04-1.84,7.04-1.84,1.64,0,3.25.1,4.78.31,1.75.23,3.29,1.12,4.58,2.64.53.61,1.06,1.53,1.61,2.8.5,1.16,1.03,2.49,1.57,3.95.53,1.42,1.11,2.9,1.74,4.42.62,1.51,1.25,2.9,1.87,4.13.6,1.19,1.21,2.17,1.82,2.91.46.56.91.84,1.33.84,1.71,0,2.97-.68,3.85-2.08,1.01-1.61,1.83-3.54,2.43-5.73.62-2.27,1.17-4.58,1.63-6.88.49-2.44,1.17-4.37,2.03-5.74.42-.68,1.04-1.24,1.83-1.65.7-.37,1.46-.65,2.23-.84.75-.18,1.5-.3,2.24-.37.74-.07,1.42-.11,2.04-.11.84,0,1.84.07,3.06.21,1.22.14,2.47.39,3.7.73,1.27.35,2.45.82,3.5,1.38,1.21.65,2.04,1.53,2.46,2.62,1.35,3.43,2.42,7.14,3.2,11.01.78,3.89,1.17,7.74,1.17,11.45,0,1.7-.1,3.45-.31,5.21-.26,2.75-.43,5.57-.49,8.36-.07,2.83-.12,5.66-.15,8.49-.03,2.85-.15,5.73-.35,8.56-.2,2.86-.61,5.72-1.22,8.49-.31,1.3-.85,2.41-1.62,3.29-.75.87-1.65,1.56-2.67,2.04-.97.47-2.05.82-3.2,1.03-1.12.21-2.23.32-3.29.32Z"/>
          <path class="cls-1" d="M62.28,129.21c.8,0,1.78.07,2.95.2,1.17.13,2.35.37,3.55.7,1.2.33,2.3.77,3.3,1.3,1,.53,1.67,1.23,2,2.1,1.33,3.4,2.38,7.02,3.15,10.85.77,3.83,1.15,7.58,1.15,11.25,0,1.67-.1,3.37-.3,5.1-.27,2.8-.43,5.62-.5,8.45-.07,2.83-.12,5.67-.15,8.5-.03,2.83-.15,5.67-.35,8.5-.2,2.83-.6,5.62-1.2,8.35-.27,1.13-.73,2.08-1.4,2.85-.67.77-1.45,1.37-2.35,1.8-.9.43-1.88.75-2.95.95-1.07.2-2.1.3-3.1.3-1.6,0-3.02-.12-4.25-.35-1.23-.23-2.3-.65-3.2-1.25-.9-.6-1.58-1.45-2.05-2.55-.47-1.1-.7-2.52-.7-4.25s.23-3.42.7-5.05c.47-1.63.98-3.23,1.55-4.8.57-1.57,1.08-3.15,1.55-4.75.47-1.6.7-3.23.7-4.9v-1.15c0-.5-.05-.98-.15-1.45-.1-.47-.25-.87-.45-1.2-.2-.33-.47-.5-.8-.5-.73,0-1.5.75-2.3,2.25s-1.58,3.22-2.35,5.15c-.77,1.93-1.48,3.8-2.15,5.6-.67,1.8-1.27,2.97-1.8,3.5-.33.4-.67.7-1,.9-.33.2-.77.3-1.3.3-.67,0-1.3-.05-1.9-.15-.6-.1-1.13-.38-1.6-.85-.67-.73-1.32-1.97-1.95-3.7-.63-1.73-1.35-3.5-2.15-5.3s-1.7-3.4-2.7-4.8c-1-1.4-2.2-2.1-3.6-2.1-.73,0-1.2.2-1.4.6-.2.4-.3.97-.3,1.7,0,1.67.13,3.33.4,5,.27,1.67.55,3.33.85,5,.3,1.67.58,3.32.85,4.95.27,1.63.4,3.32.4,5.05,0,1.53-.3,2.85-.9,3.95-.6,1.1-1.4,2-2.4,2.7s-2.15,1.22-3.45,1.55c-1.3.33-2.65.5-4.05.5-3.47,0-6.12-.75-7.95-2.25-1.83-1.5-3.15-3.4-3.95-5.7-.8-2.3-1.23-4.85-1.3-7.65-.07-2.8-.1-5.5-.1-8.1,0-3,.07-6.13.2-9.4.13-3.27.35-6.55.65-9.85.3-3.3.7-6.57,1.2-9.8.5-3.23,1.15-6.32,1.95-9.25.73-2.73,1.85-4.65,3.35-5.75,1.5-1.1,3.65-1.65,6.45-1.65,1.6,0,3.15.1,4.65.3s2.82.97,3.95,2.3c.47.53.95,1.38,1.45,2.55.5,1.17,1.02,2.47,1.55,3.9.53,1.43,1.12,2.92,1.75,4.45.63,1.53,1.27,2.93,1.9,4.2.63,1.27,1.28,2.3,1.95,3.1.67.8,1.37,1.2,2.1,1.2,2.07,0,3.63-.85,4.7-2.55,1.07-1.7,1.92-3.7,2.55-6,.63-2.3,1.18-4.62,1.65-6.95.46-2.33,1.1-4.13,1.9-5.4.33-.53.82-.97,1.45-1.3.63-.33,1.3-.58,2-.75.7-.17,1.4-.28,2.1-.35.7-.07,1.35-.1,1.95-.1M62.28,127.21c-.65,0-1.37.04-2.14.11-.78.07-1.58.21-2.37.39-.86.21-1.69.52-2.47.93-.95.5-1.69,1.17-2.21,2.01-.94,1.49-1.65,3.48-2.17,6.07-.46,2.27-1,4.57-1.62,6.81-.58,2.1-1.36,3.94-2.32,5.47-.7,1.11-1.63,1.61-3.01,1.61-.04,0-.24-.1-.56-.48-.57-.68-1.14-1.59-1.7-2.71-.61-1.21-1.23-2.58-1.84-4.07-.62-1.51-1.2-2.98-1.72-4.38-.55-1.47-1.08-2.81-1.59-3.99-.59-1.37-1.17-2.38-1.78-3.08-1.44-1.7-3.2-2.7-5.19-2.97-1.58-.21-3.23-.32-4.91-.32-3.22,0-5.79.69-7.63,2.04-1.87,1.37-3.25,3.68-4.1,6.85-.81,2.98-1.48,6.17-1.99,9.46-.51,3.27-.91,6.61-1.22,9.93-.3,3.34-.52,6.68-.66,9.95-.13,3.26-.2,6.45-.2,9.48,0,2.64.03,5.39.1,8.15.07,2.99.54,5.77,1.41,8.26.92,2.64,2.46,4.86,4.57,6.59,2.19,1.79,5.29,2.7,9.22,2.7,1.57,0,3.1-.19,4.55-.56,1.52-.39,2.9-1.01,4.1-1.85,1.25-.88,2.26-2.01,3.01-3.38.76-1.39,1.14-3.04,1.14-4.91s-.14-3.63-.43-5.37c-.27-1.63-.55-3.31-.86-4.98-.3-1.69-.59-3.36-.84-4.96-.25-1.55-.38-3.13-.38-4.69,0-.1,0-.2,0-.28.44.07,1.02.34,1.67,1.24.92,1.28,1.76,2.78,2.5,4.45.77,1.73,1.48,3.48,2.1,5.18.73,2,1.5,3.42,2.35,4.36l.03.03.03.03c.76.77,1.67,1.24,2.69,1.41.7.12,1.45.18,2.23.18.9,0,1.68-.2,2.33-.58.52-.31.99-.73,1.46-1.27.74-.77,1.42-2.06,2.19-4.15.64-1.74,1.34-3.55,2.13-5.56.71-1.79,1.45-3.42,2.19-4.82v.99c0,1.47-.21,2.93-.62,4.34-.46,1.56-.96,3.12-1.51,4.63-.58,1.61-1.12,3.27-1.59,4.93-.51,1.8-.78,3.69-.78,5.6,0,2.03.28,3.67.86,5.03.62,1.46,1.55,2.61,2.78,3.43,1.12.75,2.45,1.27,3.94,1.55,1.34.25,2.9.38,4.62.38,1.12,0,2.29-.11,3.47-.33,1.24-.23,2.4-.61,3.45-1.11,1.14-.55,2.14-1.32,2.99-2.29.88-1.01,1.5-2.26,1.84-3.7.63-2.85,1.04-5.76,1.25-8.67.2-2.85.32-5.75.36-8.62.03-2.73.08-5.58.15-8.48.06-2.77.23-5.56.49-8.31.2-1.76.31-3.56.31-5.29,0-3.77-.4-7.69-1.19-11.64-.79-3.93-1.88-7.7-3.25-11.19-.51-1.31-1.49-2.37-2.92-3.13-1.12-.6-2.37-1.09-3.71-1.46-1.29-.36-2.59-.61-3.86-.76-1.26-.14-2.3-.21-3.18-.21h0Z"/>
        </g>
        <g>
          <path class="cls-3" d="M123.68,202.46c-1.95,0-3.83-.27-5.59-.79-1.78-.54-3.37-1.35-4.73-2.42-1.38-1.1-2.49-2.49-3.28-4.15-.8-1.67-1.2-3.6-1.2-5.73s.35-4.44,1.05-6.65c.63-1.99.95-4.02.95-6.05,0-.44-.09-.57-.09-.57-.59-.08-1.23-.13-1.91-.13-1.86,0-3.08.46-3.72,1.41-.74,1.1-1.24,2.53-1.49,4.23-.26,1.86-.39,3.87-.39,5.96,0,2.31-.28,4.46-.84,6.38-.58,2.04-1.66,3.76-3.2,5.12-1.59,1.41-3.97,2.1-7.26,2.1-2.78,0-4.96-.43-6.66-1.31-1.69-.88-3.01-2.12-3.95-3.67-.9-1.51-1.48-3.3-1.73-5.34-.24-1.96-.36-4.04-.36-6.18,0-3.06.27-6.82.81-11.17.54-4.34,1.29-8.81,2.21-13.28.95-4.52,2.05-8.91,3.27-13.03,1.26-4.18,2.65-7.68,4.13-10.4,1.63-3.04,3.89-5.27,6.69-6.62,2.78-1.33,5.87-2,9.18-2,2.62,0,5.22.37,7.73,1.09,2.48.71,4.86,1.74,7.08,3.05,2.2,1.31,4.23,2.93,6.02,4.82,1.78,1.89,3.32,3.99,4.55,6.26,1.65,3.1,2.76,6.35,3.31,9.67.54,3.24.81,6.58.81,9.91,0,2.41-.07,4.62-.2,6.76-.13,2.19-.23,4.44-.3,6.67v4.47c0,1.74-.05,3.55-.15,5.41-.1,1.91-.33,3.81-.67,5.63-.34,1.9-.89,3.64-1.63,5.16-.77,1.58-1.85,2.88-3.21,3.87-1.4,1.02-3.16,1.54-5.24,1.54ZM106.86,156.35c.45,0,.84.19,1.1.52.46.61.29,1.42.09,2.14-.17.59-.24,1.18-.28,1.57-.02.21-.04.37-.06.47-.38,1.98-.1,2.36,1.14,2.74.36.11.73.17,1.06.17s.64-.06.84-.18c.37-.22.54-.71.66-1.37.11-.57-.12-1.36-.34-2.14-.22-.78-.46-1.59-.44-2.4,0-.61.45-1.28,1.41-1.28.62,0,1.43.29,2.14.55.23.08.43.16.6.21.2.06.4.13.6.19.58.19,1.12.37,1.59.37.12,0,.23-.01.33-.04,1.4-.32,1.6-.58,1.85-1.57.33-1.38-.62-2.82-1.22-3.56-.63-.79-1.39-1.5-2.2-2.25-.48-.45-.96-.9-1.41-1.36l-.41-.42c-.56-.58-1.08-1.12-1.72-1.55-.95-.63-2.24-.98-3.63-.98-.89,0-1.78.15-2.57.42-1.44.5-2.41,1.57-3.44,2.69-.4.44-.8.87-1.23,1.28-1.26,1.22-1.76,2.77-1.62,5.05.07,1.13,1.48,1.53,2.78,1.53,1.06,0,2.29-.23,3.66-.69.25-.08.47-.12.68-.12Z"/>
          <path class="cls-1" d="M105.58,129.16c2.54,0,5.02.35,7.45,1.05,2.44.7,4.72,1.69,6.85,2.95,2.14,1.27,4.07,2.82,5.8,4.65,1.74,1.84,3.2,3.85,4.4,6.05,1.6,3,2.67,6.12,3.2,9.35.54,3.24.8,6.49.8,9.75,0,2.27-.06,4.5-.2,6.7-.13,2.2-.23,4.44-.3,6.7v4.5c0,1.74-.05,3.52-.15,5.35-.1,1.84-.31,3.67-.65,5.5-.33,1.84-.85,3.47-1.55,4.9-.7,1.44-1.66,2.6-2.9,3.5-1.23.9-2.78,1.35-4.65,1.35s-3.63-.25-5.3-.75c-1.66-.5-3.13-1.25-4.4-2.25-1.26-1-2.26-2.26-3-3.8-.73-1.53-1.1-3.3-1.1-5.3,0-2.13.34-4.25,1-6.35.67-2.1,1-4.21,1-6.35,0-.93-.31-1.45-.95-1.55-.63-.1-1.31-.15-2.05-.15-2.2,0-3.71.62-4.55,1.85-.83,1.24-1.38,2.79-1.65,4.65-.26,1.87-.4,3.9-.4,6.1s-.26,4.24-.8,6.1c-.53,1.87-1.5,3.42-2.9,4.65-1.4,1.24-3.6,1.85-6.6,1.85-2.6,0-4.66-.4-6.2-1.2-1.53-.8-2.71-1.9-3.55-3.3-.83-1.4-1.36-3.05-1.6-4.95-.23-1.9-.35-3.91-.35-6.05,0-3.06.27-6.75.8-11.05.54-4.3,1.27-8.7,2.2-13.2.94-4.5,2.02-8.81,3.25-12.95,1.24-4.13,2.59-7.53,4.05-10.2,1.54-2.86,3.62-4.93,6.25-6.2,2.64-1.26,5.55-1.9,8.75-1.9M102.51,158.17c1.11,0,2.44-.23,3.98-.74.15-.05.27-.07.36-.07.55,0,.42.7.23,1.39-.27.93-.3,1.82-.36,2.12-.4,2.06-.24,3.26,1.83,3.89.43.13.9.21,1.35.21.49,0,.96-.09,1.35-.32.75-.45.99-1.27,1.14-2.04.28-1.45-.79-3.23-.76-4.71,0-.21.16-.3.41-.3.62,0,1.81.52,2.44.72.82.25,1.66.61,2.49.61.19,0,.37-.02.56-.06,1.7-.39,2.24-.89,2.6-2.3.37-1.52-.34-3.12-1.41-4.44-1.06-1.32-2.46-2.44-3.67-3.68-.72-.73-1.39-1.5-2.28-2.1-1.18-.78-2.69-1.15-4.19-1.15-1,0-2,.16-2.9.48-2.27.79-3.45,2.68-5.03,4.2-1.68,1.62-2.06,3.63-1.92,5.83.09,1.43,1.42,2.46,3.78,2.46M105.58,127.16c-3.46,0-6.7.7-9.61,2.1-3.01,1.45-5.41,3.82-7.15,7.06-1.51,2.77-2.93,6.33-4.2,10.57-1.24,4.16-2.34,8.57-3.29,13.12-.93,4.49-1.68,8.99-2.23,13.36-.54,4.39-.82,8.19-.82,11.3,0,2.18.12,4.29.36,6.29.28,2.18.9,4.11,1.87,5.73,1.04,1.73,2.49,3.09,4.34,4.05,1.85.96,4.18,1.43,7.13,1.43,3.55,0,6.14-.77,7.93-2.35,1.69-1.48,2.86-3.37,3.5-5.6.58-2,.88-4.24.88-6.65,0-2.05.13-4.01.38-5.82.22-1.54.67-2.83,1.33-3.81.43-.63,1.41-.96,2.89-.96.35,0,.68.01,1,.04-.03,1.83-.33,3.6-.9,5.4-.73,2.31-1.09,4.65-1.09,6.96s.44,4.36,1.29,6.16c.87,1.8,2.06,3.32,3.56,4.51,1.47,1.15,3.17,2.03,5.07,2.6,1.85.55,3.83.83,5.88.83,2.29,0,4.26-.58,5.83-1.74,1.49-1.08,2.68-2.51,3.52-4.24.78-1.6,1.36-3.42,1.72-5.42.34-1.84.57-3.78.68-5.74.1-1.86.15-3.69.15-5.46v-4.47c.07-2.24.17-4.46.3-6.61.14-2.15.2-4.38.2-6.82,0-3.39-.28-6.79-.83-10.08-.56-3.42-1.71-6.78-3.41-9.96-1.29-2.36-2.87-4.53-4.71-6.48-1.85-1.96-3.95-3.64-6.23-5-2.29-1.36-4.76-2.42-7.32-3.15-2.6-.75-5.29-1.13-8-1.13h0ZM102.51,156.17c-1.08,0-1.77-.3-1.78-.59-.13-1.98.27-3.26,1.31-4.27.46-.44.87-.89,1.27-1.33.98-1.08,1.83-2,3.03-2.42.69-.24,1.47-.37,2.25-.37,1.19,0,2.28.29,3.09.82.53.36,1.02.87,1.54,1.4.14.14.28.29.42.43.47.48.96.94,1.43,1.38.78.73,1.52,1.42,2.1,2.15.83,1.02,1.2,2.01,1.03,2.71-.11.41-.18.51-.19.52,0,0-.15.13-.92.31-.03,0-.07,0-.11,0-.31,0-.81-.16-1.28-.32-.21-.07-.43-.14-.64-.2-.14-.04-.33-.11-.54-.19-.95-.35-1.74-.61-2.48-.61-1.36,0-2.39.98-2.41,2.27-.02.95.24,1.87.48,2.68.17.6.38,1.34.32,1.67-.11.55-.2.69-.22.72,0,0,0,0,0,0-.02,0-.13.03-.3.03-.23,0-.51-.04-.77-.13-.46-.14-.58-.26-.58-.26,0,0-.07-.28.14-1.33.02-.11.05-.31.08-.55.04-.38.1-.89.24-1.39.18-.65.55-1.97-.25-3.03-.44-.58-1.13-.92-1.9-.92-.32,0-.65.06-1,.17-1.25.42-2.4.64-3.35.64h0Z"/>
        </g>
        <g>
          <path class="cls-3" d="M154.19,205.05c-8.9,0-14.6-2.54-16.06-7.16-.34-1.07-.48-5.41-.69-12.39-.14-4.56-.28-9.28-.5-11.9-.51-5.9-.77-11.86-.77-17.71,0-1.34.08-3,.22-4.94.15-1.98.41-4.01.78-6.05.37-2.06.87-4.04,1.46-5.86.62-1.92,1.43-3.46,2.39-4.56,1.64-2,3.44-3.32,5.34-3.92,1.81-.57,3.89-.86,6.18-.86,4.35,0,8.98.93,13.76,2.77,4.76,1.83,9.2,4.41,13.18,7.67,3.99,3.27,7.34,7.18,9.95,11.62,2.64,4.5,3.98,9.46,3.98,14.73,0,4.46-1.16,9.12-3.45,13.84-2.27,4.68-5.25,9.01-8.85,12.85-3.23,3.44-7.23,7.27-12.35,9.53-2.64,1.16-8.49,2.34-14.58,2.34ZM163.53,155.04c-.22,0-.75,0-1.21,1.16-.44,1.11-.77,2.38-.98,3.78-.21,1.42-.32,2.81-.32,4.12v2.6c0,.59.11,1.52.32,2.75.21,1.24.53,2.5.95,3.74.41,1.2.92,2.24,1.52,3.1.69.98,1.29.98,1.49.98.7,0,1.25-.3,1.72-.94.59-.81,1.08-1.8,1.45-2.96.38-1.2.67-2.42.84-3.62.17-1.22.26-2.17.26-2.83,0-.93-.16-2.09-.47-3.45-.31-1.37-.77-2.73-1.37-4.03-.58-1.27-1.27-2.37-2.04-3.27-.65-.75-1.35-1.11-2.15-1.11Z"/>
          <path class="cls-1" d="M152.54,130.68c4.25,0,8.71.9,13.4,2.7,4.68,1.8,8.99,4.31,12.91,7.51,3.92,3.21,7.16,6.99,9.72,11.35,2.56,4.36,3.84,9.1,3.84,14.22,0,4.33-1.12,8.8-3.35,13.41-2.23,4.61-5.13,8.81-8.68,12.6-3.55,3.78-7.38,7.25-12.03,9.3-2.54,1.12-8.36,2.26-14.17,2.26-6.78,0-13.55-1.55-15.1-6.46-.57-1.8-.64-18.16-1.15-24.07-.51-5.91-.77-11.79-.77-17.63,0-1.3.07-2.92.22-4.87.15-1.95.4-3.93.77-5.95.37-2.02.84-3.93,1.43-5.73.58-1.8,1.32-3.21,2.2-4.22,1.54-1.87,3.17-3.08,4.89-3.62s3.68-.81,5.88-.81M165.28,178.27c1.02,0,1.87-.45,2.53-1.35.66-.9,1.19-1.98,1.59-3.24.4-1.26.7-2.52.88-3.78.18-1.26.27-2.25.27-2.97,0-1.01-.16-2.23-.49-3.68-.33-1.44-.81-2.85-1.43-4.22-.62-1.37-1.36-2.54-2.2-3.51-.84-.97-1.81-1.46-2.91-1.46-.95,0-1.67.59-2.14,1.78-.48,1.19-.82,2.52-1.04,4-.22,1.48-.33,2.9-.33,4.27v2.6c0,.65.11,1.62.33,2.92.22,1.3.55,2.59.99,3.89.44,1.3.99,2.42,1.65,3.35.66.94,1.43,1.41,2.31,1.41M152.54,128.68c-2.39,0-4.57.3-6.48.9-2.08.65-4.04,2.08-5.82,4.24-1.04,1.21-1.91,2.85-2.57,4.89-.61,1.87-1.11,3.89-1.49,5.99-.38,2.07-.64,4.14-.79,6.15-.15,1.97-.23,3.66-.23,5.02,0,5.88.26,11.87.78,17.8.22,2.58.36,7.29.5,11.84.24,8.1.37,11.52.74,12.67,1.6,5.07,7.64,7.86,17.01,7.86,6.22,0,12.25-1.22,14.98-2.43,5.32-2.35,9.57-6.45,12.68-9.76,3.67-3.91,6.71-8.32,9.02-13.09,2.36-4.87,3.55-9.67,3.55-14.28,0-5.45-1.39-10.58-4.12-15.23-2.67-4.54-6.1-8.54-10.18-11.89-4.07-3.33-8.59-5.96-13.45-7.83-4.9-1.88-9.65-2.84-14.12-2.84h0ZM165.28,176.27c-.23,0-.49-.3-.67-.56-.55-.78-1.01-1.73-1.39-2.84-.4-1.19-.71-2.4-.91-3.59-.25-1.47-.3-2.22-.3-2.59v-2.6c0-1.27.1-2.61.31-3.98.2-1.32.51-2.52.92-3.55.13-.31.24-.47.3-.53.36,0,.81.1,1.39.77.71.83,1.35,1.85,1.89,3.03.56,1.24,1,2.53,1.3,3.84.29,1.29.44,2.37.44,3.23,0,.62-.09,1.52-.25,2.69-.17,1.15-.44,2.31-.8,3.46-.34,1.05-.77,1.95-1.3,2.67-.36.49-.65.53-.91.53h0Z"/>
        </g>
      </g>
    </g>
  </g>
</svg>