<?xml version="1.0" encoding="UTF-8"?>
<svg id="Layer_2" data-name="Layer 2" xmlns="http://www.w3.org/2000/svg" viewBox="0 0 190.7 191.34">
  <defs>
    <style>
      .cls-1 {
        fill: #1d1c1c;
      }

      .cls-1, .cls-2 {
        stroke-width: 0px;
      }

      .cls-2 {
        fill: #00a657;
      }
    </style>
  </defs>
  <g id="Layer_4" data-name="Layer 4">
    <path class="cls-2" d="M99.63,10.89c-.12-3.29-.71-6.56-1.75-9.68-.13-.39-.29-.8-.63-1.03-.33-.22-.76-.2-1.16-.16-3.6.34-6.99,1.84-10.19,3.53-3.99,2.11-7.94,4.66-10.4,8.44-2.18,3.36-2.98,7.48-3.39,11.4-.17,1.6,0,3.47-.46,5.03-.13.46-1.98,4.22-2.25,4.2,9.03.78,17.56-4.16,24.58-9.88,1.71-1.39,3.42-2.89,4.43-4.86,1.1-2.13,1.28-4.61,1.2-7ZM91.9,8.8c-3.38,3.43-4.27,4.8-5.79,6.39-.27.28-.52.57-.76.87l-6.39,8.29c.37-1.15,1.95-4.26,3.77-6.97,1.1-1.64,2.45-3.1,3.98-4.35l5.19-4.23Z"/>
    <g>
      <path class="cls-1" d="M10.5,40.22c2.53,0,4.65.28,6.35.85,1.7.57,3.05,1.45,4.05,2.65s1.72,2.68,2.15,4.45c.43,1.77.65,3.85.65,6.25,0,1.2-.08,2.77-.25,4.7-.17,1.93-.17,3.82,0,5.65.17,1.83.63,3.42,1.4,4.75.77,1.33,2.08,2,3.95,2,3.47,0,5.93-.96,7.4-2.9,1.47-1.93,2.2-4.5,2.2-7.7,0-2.33-.18-4.67-.55-7-.37-2.33-.55-4.67-.55-7,0-3.2.67-5.4,2-6.6,1.33-1.2,3.6-1.8,6.8-1.8.93,0,2.08.1,3.45.3,1.37.2,2.73.52,4.1.95,1.37.43,2.6.98,3.7,1.65,1.1.67,1.85,1.47,2.25,2.4.33.93.56,1.9.7,2.9.13,1,.2,1.97.2,2.9,0,3.93-.32,7.97-.95,12.1-.63,4.13-1.47,8.25-2.5,12.35-1.04,4.1-2.25,8.12-3.65,12.05-1.4,3.93-2.9,7.7-4.5,11.3-.67,1.6-1.42,3.1-2.25,4.5s-1.77,2.65-2.8,3.75c-1.04,1.1-2.25,1.97-3.65,2.6-1.4.63-3.07.95-5,.95-3.93,0-7.55-.85-10.85-2.55-3.3-1.7-6.25-3.98-8.85-6.85-2.6-2.87-4.87-6.13-6.8-9.8-1.93-3.67-3.55-7.46-4.85-11.4-1.3-3.93-2.27-7.83-2.9-11.7-.63-3.87-.95-7.43-.95-10.7,0-2,.08-3.97.25-5.9.17-1.93.6-3.65,1.3-5.15.7-1.5,1.75-2.7,3.15-3.6,1.4-.9,3.33-1.35,5.8-1.35Z"/>
      <path class="cls-1" d="M63.3,93.52c0-1.4.1-2.8.3-4.2.33-2.73.52-5.43.55-8.1.03-2.67.05-5.37.05-8.1v-6.5c0-2.27.07-4.52.2-6.75.13-2.23.37-4.45.7-6.65.33-2.2.83-4.3,1.5-6.3.46-1.33,1.12-2.42,1.95-3.25s1.8-1.47,2.9-1.9c1.1-.43,2.27-.71,3.5-.85,1.23-.13,2.48-.2,3.75-.2,2.53,0,4.6.47,6.2,1.4,1.6.93,2.6,2.73,3,5.4.87,5.47,1.28,11,1.25,16.6-.03,5.6-.05,11.13-.05,16.6,0,2.13.03,4.22.1,6.25.07,2.03.1,4.08.1,6.15,0,1.6-.27,3.42-.8,5.45-.53,2.03-1.32,3.95-2.35,5.75-1.03,1.8-2.3,3.33-3.8,4.6-1.5,1.27-3.18,1.9-5.05,1.9-2.67,0-4.88-.47-6.65-1.4-1.77-.93-3.2-2.18-4.3-3.75-1.1-1.57-1.88-3.4-2.35-5.5-.47-2.1-.7-4.32-.7-6.65Z"/>
      <path class="cls-1" d="M93.7,66.92c0-1.33.02-3.08.05-5.25.03-2.17.17-4.38.4-6.65.23-2.27.57-4.43,1-6.5.43-2.07,1.05-3.63,1.85-4.7,1.07-1.47,2.57-2.5,4.5-3.1,1.93-.6,3.77-.9,5.5-.9,2,0,3.72.13,5.15.4,1.43.27,2.63.77,3.6,1.5.97.73,1.67,1.78,2.1,3.15.43,1.37.65,3.12.65,5.25s-.15,4.13-.45,6.2c-.3,2.07-.62,4.12-.95,6.15-.33,2.03-.65,4.08-.95,6.15-.3,2.07-.45,4.17-.45,6.3,0,1.6.17,3.18.5,4.75.33,1.57,1.17,2.92,2.5,4.05,1.73,1.47,3.62,2.78,5.65,3.95,2.03,1.17,4.12,2.12,6.25,2.85,2.8.93,4.71,2.27,5.75,4,1.03,1.73,1.55,4.04,1.55,6.9,0,2.33-.35,4.28-1.05,5.85-.7,1.57-1.68,2.82-2.95,3.75-1.27.93-2.78,1.6-4.55,2-1.77.4-3.72.6-5.85.6-1.33,0-2.87-.03-4.6-.1-1.73-.07-3.53-.22-5.4-.45-1.87-.23-3.72-.58-5.55-1.05-1.83-.47-3.53-1.08-5.1-1.85-1.57-.77-2.9-1.7-4-2.8s-1.85-2.42-2.25-3.95c-.6-2.53-1.1-5.37-1.5-8.5-.4-3.13-.7-6.35-.9-9.65-.2-3.3-.33-6.53-.4-9.7-.07-3.17-.1-6.05-.1-8.65Z"/>
      <path class="cls-1" d="M140.4,65.12c0-1.2.07-2.7.2-4.5.13-1.8.37-3.63.7-5.5.33-1.87.77-3.63,1.3-5.3.53-1.67,1.2-2.97,2-3.9,1.4-1.73,2.88-2.85,4.45-3.35s3.35-.75,5.35-.75c3.87,0,7.93.83,12.2,2.5,4.27,1.67,8.18,3.98,11.75,6.95,3.57,2.97,6.52,6.47,8.85,10.5,2.33,4.04,3.5,8.42,3.5,13.15,0,4-1.02,8.13-3.05,12.4-2.03,4.27-4.67,8.15-7.9,11.65-3.23,3.5-6.88,6.37-10.95,8.6-4.07,2.23-8.13,3.35-12.2,3.35-2.2,0-4.05-.32-5.55-.95-1.5-.63-2.75-1.52-3.75-2.65-1-1.13-1.8-2.52-2.4-4.15-.6-1.63-1.1-3.48-1.5-5.55-1.07-5.33-1.83-10.73-2.3-16.2-.47-5.47-.7-10.9-.7-16.3ZM164.4,63.42c-.87,0-1.52.55-1.95,1.65-.43,1.1-.75,2.33-.95,3.7-.2,1.37-.3,2.68-.3,3.95v2.4c0,.6.1,1.5.3,2.7.2,1.2.5,2.4.9,3.6.4,1.2.9,2.23,1.5,3.1.6.87,1.3,1.3,2.1,1.3.93,0,1.7-.42,2.3-1.25.6-.83,1.08-1.83,1.45-3,.37-1.17.63-2.33.8-3.5.17-1.17.25-2.08.25-2.75,0-.93-.15-2.07-.45-3.4-.3-1.33-.73-2.63-1.3-3.9-.57-1.27-1.23-2.35-2-3.25-.77-.9-1.65-1.35-2.65-1.35Z"/>
      <path class="cls-1" d="M58.38,163.44v-1.15c0-.5-.05-.98-.15-1.45-.1-.47-.25-.87-.45-1.2-.2-.33-.47-.5-.8-.5-.73,0-1.5.75-2.3,2.25s-1.58,3.22-2.35,5.15c-.77,1.93-1.48,3.8-2.15,5.6-.67,1.8-1.27,2.97-1.8,3.5-.33.4-.67.7-1,.9-.33.2-.77.3-1.3.3-.67,0-1.3-.05-1.9-.15-.6-.1-1.13-.38-1.6-.85-.67-.73-1.32-1.97-1.95-3.7-.63-1.73-1.35-3.5-2.15-5.3s-1.7-3.4-2.7-4.8c-1-1.4-2.2-2.1-3.6-2.1-.73,0-1.2.2-1.4.6-.2.4-.3.97-.3,1.7,0,1.67.13,3.33.4,5,.27,1.67.55,3.33.85,5,.3,1.67.58,3.32.85,4.95.27,1.63.4,3.32.4,5.05,0,1.53-.3,2.85-.9,3.95-.6,1.1-1.4,2-2.4,2.7s-2.15,1.22-3.45,1.55c-1.3.33-2.65.5-4.05.5-3.47,0-6.12-.75-7.95-2.25-1.83-1.5-3.15-3.4-3.95-5.7-.8-2.3-1.23-4.85-1.3-7.65-.07-2.8-.1-5.5-.1-8.1,0-3,.07-6.13.2-9.4.13-3.27.35-6.55.65-9.85.3-3.3.7-6.57,1.2-9.8.5-3.23,1.15-6.32,1.95-9.25.73-2.73,1.85-4.65,3.35-5.75,1.5-1.1,3.65-1.65,6.45-1.65,1.6,0,3.15.1,4.65.3s2.82.97,3.95,2.3c.47.53.95,1.38,1.45,2.55.5,1.17,1.02,2.47,1.55,3.9.53,1.43,1.12,2.92,1.75,4.45.63,1.53,1.27,2.93,1.9,4.2.63,1.27,1.28,2.3,1.95,3.1.67.8,1.37,1.2,2.1,1.2,2.07,0,3.63-.85,4.7-2.55,1.07-1.7,1.92-3.7,2.55-6,.63-2.3,1.18-4.62,1.65-6.95.46-2.33,1.1-4.13,1.9-5.4.33-.53.82-.97,1.45-1.3.63-.33,1.3-.58,2-.75.7-.17,1.4-.28,2.1-.35.7-.07,1.35-.1,1.95-.1.8,0,1.78.07,2.95.2,1.17.13,2.35.37,3.55.7,1.2.33,2.3.77,3.3,1.3,1,.53,1.67,1.23,2,2.1,1.33,3.4,2.38,7.02,3.15,10.85.77,3.83,1.15,7.58,1.15,11.25,0,1.67-.1,3.37-.3,5.1-.27,2.8-.43,5.62-.5,8.45-.07,2.83-.12,5.67-.15,8.5-.03,2.83-.15,5.67-.35,8.5-.2,2.83-.6,5.62-1.2,8.35-.27,1.13-.73,2.08-1.4,2.85-.67.77-1.45,1.37-2.35,1.8-.9.43-1.88.75-2.95.95-1.07.2-2.1.3-3.1.3-1.6,0-3.02-.12-4.25-.35-1.23-.23-2.3-.65-3.2-1.25-.9-.6-1.58-1.45-2.05-2.55-.47-1.1-.7-2.52-.7-4.25s.23-3.42.7-5.05c.47-1.63.98-3.23,1.55-4.8.57-1.57,1.08-3.15,1.55-4.75.47-1.6.7-3.23.7-4.9Z"/>
      <path class="cls-1" d="M131.28,139.14c-.53-3.23-1.6-6.35-3.2-9.35-1.2-2.2-2.66-4.21-4.4-6.05-1.73-1.83-3.66-3.38-5.8-4.65-2.13-1.26-4.41-2.25-6.85-2.95-2.43-.7-4.91-1.05-7.45-1.05-3.2,0-6.11.64-8.75,1.9-2.63,1.27-4.71,3.34-6.25,6.2-1.46,2.67-2.81,6.07-4.05,10.2-1.23,4.14-2.31,8.45-3.25,12.95-.93,4.5-1.66,8.9-2.2,13.2-.53,4.3-.8,7.99-.8,11.05,0,2.14.12,4.15.35,6.05.24,1.9.77,3.55,1.6,4.95.84,1.4,2.02,2.5,3.55,3.3,1.54.8,3.6,1.2,6.2,1.2,3,0,5.2-.61,6.6-1.85,1.4-1.23,2.37-2.78,2.9-4.65.54-1.86.8-3.9.8-6.1s.14-4.23.4-6.1c.27-1.86.82-3.41,1.65-4.65.84-1.23,2.35-1.85,4.55-1.85.74,0,1.42.05,2.05.15.64.1.95.62.95,1.55,0,2.14-.33,4.25-1,6.35-.66,2.1-1,4.22-1,6.35,0,2,.37,3.77,1.1,5.3.74,1.54,1.74,2.8,3,3.8,1.27,1,2.74,1.75,4.4,2.25,1.67.5,3.44.75,5.3.75s3.42-.45,4.65-1.35c1.24-.9,2.2-2.06,2.9-3.5.7-1.43,1.22-3.06,1.55-4.9.34-1.83.55-3.66.65-5.5.1-1.83.15-3.61.15-5.35v-4.5c.07-2.26.17-4.5.3-6.7.14-2.2.2-4.43.2-6.7,0-3.26-.26-6.51-.8-9.75ZM118.13,142.49c-.36,1.41-.9,1.91-2.6,2.3-1.01.23-2.05-.25-3.05-.55-.88-.27-2.84-1.18-2.85-.42-.03,1.48,1.04,3.26.76,4.71-.15.77-.39,1.59-1.14,2.04-.75.44-1.81.38-2.7.11-2.07-.63-2.23-1.83-1.83-3.89.06-.3.09-1.19.36-2.12.23-.82.37-1.64-.59-1.32-4.83,1.62-7.63.38-7.76-1.72-.14-2.2.24-4.21,1.92-5.83,1.58-1.52,2.76-3.41,5.03-4.2,2.26-.79,5.12-.63,7.09.67.89.6,1.56,1.37,2.28,2.1,1.21,1.24,2.61,2.36,3.67,3.68,1.07,1.32,1.78,2.92,1.41,4.44Z"/>
      <path class="cls-1" d="M135.17,141.81c0-1.3.07-2.92.22-4.87.15-1.95.4-3.93.77-5.95.37-2.02.84-3.93,1.43-5.73.58-1.8,1.32-3.21,2.2-4.22,1.54-1.87,3.17-3.08,4.89-3.62s3.68-.81,5.88-.81c4.25,0,8.71.9,13.4,2.7,4.68,1.8,8.99,4.31,12.91,7.51,3.92,3.21,7.16,6.99,9.72,11.35,2.56,4.36,3.84,9.1,3.84,14.22,0,4.33-1.12,8.8-3.35,13.41-2.23,4.61-5.13,8.81-8.68,12.6-3.55,3.78-7.38,7.25-12.03,9.3-5.5,2.43-26.39,4.93-29.27-4.21-.57-1.8-.64-18.16-1.15-24.07-.51-5.91-.77-11.79-.77-17.63ZM161.52,139.97c-.95,0-1.67.59-2.14,1.78-.48,1.19-.82,2.52-1.04,4-.22,1.48-.33,2.9-.33,4.27v2.6c0,.65.11,1.62.33,2.92.22,1.3.55,2.59.99,3.89.44,1.3.99,2.42,1.65,3.35.66.94,1.43,1.41,2.31,1.41,1.02,0,1.87-.45,2.53-1.35.66-.9,1.19-1.98,1.59-3.24.4-1.26.7-2.52.88-3.78.18-1.26.27-2.25.27-2.97,0-1.01-.16-2.23-.49-3.68-.33-1.44-.81-2.85-1.43-4.22-.62-1.37-1.36-2.54-2.2-3.51-.84-.97-1.81-1.46-2.91-1.46Z"/>
    </g>
  </g>
</svg>