<?xml version="1.0" encoding="UTF-8"?>
<svg xmlns="http://www.w3.org/2000/svg" xmlns:xlink="http://www.w3.org/1999/xlink" viewBox="0 0 228 267">
  <defs>
    <style>
      .cls-1 {
        fill: none;
      }

      .cls-1, .cls-2, .cls-3, .cls-4, .cls-5 {
        stroke-width: 0px;
      }

      .cls-2, .cls-3, .cls-6 {
        mix-blend-mode: soft-light;
      }

      .cls-2, .cls-6 {
        opacity: .5;
      }

      .cls-3 {
        fill: url(#pattern2);
      }

      .cls-7 {
        isolation: isolate;
      }

      .cls-5 {
        fill: #fff;
      }
    </style>
    <pattern id="pattern2" x="0" y="0" width="240.95" height="186" patternTransform="translate(-565 -59)" patternUnits="userSpaceOnUse" viewBox="0 0 240.95 186">
      <g>
        <rect class="cls-1" width="240.95" height="186"/>
        <g>
          <g class="cls-6">
            <path class="cls-4" d="M86.17,169.03c.16-.33.27-.71.5-.99.54-.67,1.26-.89,2.11-.71,3.29.72,5.98,2.42,8.09,5.03,1.77,2.19,2.79,4.69,3.07,7.5.03.34.04.69.05,1.03,0,.05,0,.1,0,.21-.53-.04-1.06-.03-1.58-.11-5.7-.89-9.6-4.05-11.69-9.42-.24-.61-.37-1.26-.54-1.89,0-.22,0-.43,0-.65Z"/>
            <path class="cls-4" d="M101.23,174.73c-.53-1.24-1.2-2.4-2-3.47-1.12-1.48-2.44-2.74-3.99-3.77-.18-.12-.26-.24-.24-.47.17-1.7.69-3.3,1.4-4.85.8-1.73,1.82-3.33,3.01-4.81.97-1.21,2.69-1.25,3.66-.05,1.79,2.21,3.21,4.63,3.99,7.39.22.78.32,1.6.45,2.4.02.1-.06.27-.15.33-2.69,1.81-4.7,4.2-6.01,7.18-.02.04-.04.07-.06.1,0,0-.02,0-.06.03Z"/>
            <path class="cls-4" d="M102.52,181.09c0-1.3.15-2.54.53-3.73,1.52-4.83,4.68-8.08,9.49-9.7.45-.15.93-.26,1.4-.35,1.39-.25,2.67,1.04,2.37,2.43-1.02,4.69-3.77,8.02-8.05,10.09-1.7.82-3.51,1.23-5.4,1.26-.1,0-.19,0-.32,0Z"/>
          </g>
          <g class="cls-6">
            <path class="cls-4" d="M30.17,155.09c-.14.64-.26,1.28-.41,1.92-.25,1.03-.6,2.03-1.09,2.98-.68,1.31-1.76,2-3.19,2.17-.68.08-1.37.08-2.05.14-.15.01-.32.07-.43.17-.45.42-.88.86-1.29,1.34.24-.06.48-.13.73-.18,1.11-.19,2.17.04,3.2.44,1.01.39,1.93.92,2.76,1.61.69.58.7,1.45,0,2.03-1.4,1.18-3,1.89-4.82,2.09-1.01.11-1.94-.23-2.82-.68-.94-.49-1.7-1.19-2.26-2.03-1.02,1.02-2.03,2.03-2.98,2.98.21-.04.54-.14.88-.18.71-.09,1.41,0,2.1.19,1.35.38,2.57,1.02,3.64,1.93.65.55.65,1.41,0,1.97-1.46,1.24-3.14,1.98-5.04,2.13-.94.07-1.82-.27-2.64-.71-.94-.5-1.69-1.2-2.27-2.06-1.03,1.03-2.05,2.05-3.04,3.04.24-.06.54-.15.84-.19,1.25-.18,2.41.16,3.54.65.82.36,1.58.82,2.27,1.41.72.61.72,1.46-.01,2.07-1.46,1.22-3.14,1.94-5.03,2.08-.77.06-1.51-.21-2.21-.52-1.03-.47-1.88-1.17-2.54-2.1-.04-.06-.08-.11-.14-.19-.09.08-.16.15-.24.22-1.15,1.15-2.29,2.3-3.44,3.44-.54.54-1.31.55-1.82.05-.51-.51-.5-1.27.04-1.82.77-.78,1.54-1.54,2.31-2.31.44-.44.89-.89,1.35-1.35-.07-.06-.12-.11-.18-.16-1.56-1.13-2.49-2.65-2.61-4.57-.04-.71.18-1.46.38-2.16.33-1.16.95-2.19,1.74-3.11.56-.65,1.42-.67,1.97,0,1.16,1.4,1.94,2.97,2.14,4.8.08.67-.02,1.33-.25,1.93,1.01-1.01,2.03-2.03,3.07-3.07-.63-.42-1.21-.97-1.67-1.62-.63-.9-1.08-1.91-1.09-3,0-.76.19-1.54.41-2.27.33-1.13.93-2.14,1.7-3.03.57-.66,1.44-.68,1.99,0,1.18,1.44,2.01,3.05,2.13,4.95.04.59-.1,1.2-.14,1.66.91-.91,1.93-1.92,2.94-2.93-.31-.26-.66-.53-.97-.84-1.01-1.01-1.6-2.23-1.77-3.64-.1-.86.15-1.68.41-2.48.36-1.11.94-2.11,1.7-3,.56-.66,1.44-.67,1.99,0,1.09,1.33,1.85,2.82,2.09,4.54.1.66.06,1.31-.15,1.95-.02.07-.04.15-.06.22l.06.05c.47-.48.95-.96,1.4-1.45.06-.07.05-.22.04-.33-.07-1.03,0-2.04.39-3.01.55-1.37,1.62-2.18,2.94-2.72,1.19-.48,2.44-.72,3.7-.94.06-.01.13-.04.19-.06.16,0,.31,0,.47,0,.59.16.96.54,1.12,1.12v.47Z"/>
            <path class="cls-5" d="M30.17,154.62c-.16-.59-.53-.96-1.12-1.12h1.12v1.12Z"/>
          </g>
          <g class="cls-6">
            <path class="cls-4" d="M186.47,153.79c.43,0,.86,0,1.3,0,.06.02.11.04.17.05,3.25.47,5.39,2.27,6.42,5.38.2.6.54.95,1.18,1.13,3.4.94,5.55,3.14,6.44,6.55.11.42.16.85.23,1.27v1.41c-.02.08-.05.15-.05.23-.14,1.32-.57,2.54-1.33,3.64-1.61,2.33-3.93,3.54-6.66,4.03-1.93.34-3.88.16-5.82.18,0-.11.02-.21.02-.32,0-1.24.01-2.47,0-3.71,0-.32.09-.54.31-.77,1.43-1.41,2.85-2.84,4.28-4.26.31-.31.49-.66.44-1.1-.06-.51-.34-.87-.83-1.05-.5-.18-.95-.06-1.33.31-.87.86-1.74,1.73-2.61,2.6-.07.07-.15.13-.27.24,0-.18,0-.29,0-.39,0-1.34,0-2.67,0-4.01,0-.39-.1-.74-.4-1.01-.39-.36-.86-.44-1.34-.24-.49.2-.76.59-.76,1.12,0,1.38,0,2.77,0,4.15,0,.1,0,.2,0,.37-.13-.13-.21-.2-.29-.27-.85-.85-1.7-1.71-2.56-2.56-.59-.58-1.42-.54-1.91.08-.41.52-.35,1.21.16,1.73,1.46,1.46,2.91,2.92,4.38,4.37.17.17.23.33.23.57-.01,1.1,0,2.2,0,3.3,0,.28.01.57.02.85-1.62,0-3.24.02-4.86,0-1.86-.01-3.55-.57-5.09-1.6-4.47-2.98-5.23-9.17-1.6-13.13,1.21-1.32,2.7-2.2,4.45-2.61.4-.09.72-.28.9-.64.1-.19.16-.4.23-.6.78-2.34,2.32-3.95,4.62-4.81.62-.23,1.29-.32,1.93-.48Z"/>
            <path class="cls-4" d="M185.88,177.66h2.48c0,1.72.02,3.44,0,5.16,0,.65-.59,1.16-1.25,1.15-.65,0-1.22-.51-1.23-1.15-.02-1.72,0-3.44,0-5.16Z"/>
          </g>
        </g>
        <g>
          <g class="cls-6">
            <path class="cls-4" d="M86.17,76.03c.16-.33.27-.71.5-.99.54-.67,1.26-.89,2.11-.71,3.29.72,5.98,2.42,8.09,5.03,1.77,2.19,2.79,4.69,3.07,7.5.03.34.04.69.05,1.03,0,.05,0,.1,0,.21-.53-.04-1.06-.03-1.58-.11-5.7-.89-9.6-4.05-11.69-9.42-.24-.61-.37-1.26-.54-1.89,0-.22,0-.43,0-.65Z"/>
            <path class="cls-4" d="M101.23,81.73c-.53-1.24-1.2-2.4-2-3.47-1.12-1.48-2.44-2.74-3.99-3.77-.18-.12-.26-.24-.24-.47.17-1.7.69-3.3,1.4-4.85.8-1.73,1.82-3.33,3.01-4.81.97-1.21,2.69-1.25,3.66-.05,1.79,2.21,3.21,4.63,3.99,7.39.22.78.32,1.6.45,2.4.02.1-.06.27-.15.33-2.69,1.81-4.7,4.2-6.01,7.18-.02.04-.04.07-.06.1,0,0-.02,0-.06.03Z"/>
            <path class="cls-4" d="M102.52,88.09c0-1.3.15-2.54.53-3.73,1.52-4.83,4.68-8.08,9.49-9.7.45-.15.93-.26,1.4-.35,1.39-.25,2.67,1.04,2.37,2.43-1.02,4.69-3.77,8.02-8.05,10.09-1.7.82-3.51,1.23-5.4,1.26-.1,0-.19,0-.32,0Z"/>
          </g>
          <g class="cls-6">
            <path class="cls-4" d="M30.17,62.09c-.14.64-.26,1.28-.41,1.92-.25,1.03-.6,2.03-1.09,2.98-.68,1.31-1.76,2-3.19,2.17-.68.08-1.37.08-2.05.14-.15.01-.32.07-.43.17-.45.42-.88.86-1.29,1.34.24-.06.48-.13.73-.18,1.11-.19,2.17.04,3.2.44,1.01.39,1.93.92,2.76,1.61.69.58.7,1.45,0,2.03-1.4,1.18-3,1.89-4.82,2.09-1.01.11-1.94-.23-2.82-.68-.94-.49-1.7-1.19-2.26-2.03-1.02,1.02-2.03,2.03-2.98,2.98.21-.04.54-.14.88-.18.71-.09,1.41,0,2.1.19,1.35.38,2.57,1.02,3.64,1.93.65.55.65,1.41,0,1.97-1.46,1.24-3.14,1.98-5.04,2.13-.94.07-1.82-.27-2.64-.71-.94-.5-1.69-1.2-2.27-2.06-1.03,1.03-2.05,2.05-3.04,3.04.24-.06.54-.15.84-.19,1.25-.18,2.41.16,3.54.65.82.36,1.58.82,2.27,1.41.72.61.72,1.46-.01,2.07-1.46,1.22-3.14,1.94-5.03,2.08-.77.06-1.51-.21-2.21-.52-1.03-.47-1.88-1.17-2.54-2.1-.04-.06-.08-.11-.14-.19-.09.08-.16.15-.24.22-1.15,1.15-2.29,2.3-3.44,3.44-.54.54-1.31.55-1.82.05-.51-.51-.5-1.27.04-1.82.77-.78,1.54-1.54,2.31-2.31.44-.44.89-.89,1.35-1.35-.07-.06-.12-.11-.18-.16-1.56-1.13-2.49-2.65-2.61-4.57-.04-.71.18-1.46.38-2.16.33-1.16.95-2.19,1.74-3.11.56-.65,1.42-.67,1.97,0,1.16,1.4,1.94,2.97,2.14,4.8.08.67-.02,1.33-.25,1.93,1.01-1.01,2.03-2.03,3.07-3.07-.63-.42-1.21-.97-1.67-1.62-.63-.9-1.08-1.91-1.09-3,0-.76.19-1.54.41-2.27.33-1.13.93-2.14,1.7-3.03.57-.66,1.44-.68,1.99,0,1.18,1.44,2.01,3.05,2.13,4.95.04.59-.1,1.2-.14,1.66.91-.91,1.93-1.92,2.94-2.93-.31-.26-.66-.53-.97-.84-1.01-1.01-1.6-2.23-1.77-3.64-.1-.86.15-1.68.41-2.48.36-1.11.94-2.11,1.7-3,.56-.66,1.44-.67,1.99,0,1.09,1.33,1.85,2.82,2.09,4.54.1.66.06,1.31-.15,1.95-.02.07-.04.15-.06.22l.06.05c.47-.48.95-.96,1.4-1.45.06-.07.05-.22.04-.33-.07-1.03,0-2.04.39-3.01.55-1.37,1.62-2.18,2.94-2.72,1.19-.48,2.44-.72,3.7-.94.06-.01.13-.04.19-.06.16,0,.31,0,.47,0,.59.16.96.54,1.12,1.12v.47Z"/>
            <path class="cls-5" d="M30.17,61.62c-.16-.59-.53-.96-1.12-1.12h1.12v1.12Z"/>
          </g>
          <g class="cls-6">
            <path class="cls-4" d="M186.47,60.79c.43,0,.86,0,1.3,0,.06.02.11.04.17.05,3.25.47,5.39,2.27,6.42,5.38.2.6.54.95,1.18,1.13,3.4.94,5.55,3.14,6.44,6.55.11.42.16.85.23,1.27v1.41c-.02.08-.05.15-.05.23-.14,1.32-.57,2.54-1.33,3.64-1.61,2.33-3.93,3.54-6.66,4.03-1.93.34-3.88.16-5.82.18,0-.11.02-.21.02-.32,0-1.24.01-2.47,0-3.71,0-.32.09-.54.31-.77,1.43-1.41,2.85-2.84,4.28-4.26.31-.31.49-.66.44-1.1-.06-.51-.34-.87-.83-1.05-.5-.18-.95-.06-1.33.31-.87.86-1.74,1.73-2.61,2.6-.07.07-.15.13-.27.24,0-.18,0-.29,0-.39,0-1.34,0-2.67,0-4.01,0-.39-.1-.74-.4-1.01-.39-.36-.86-.44-1.34-.24-.49.2-.76.59-.76,1.12,0,1.38,0,2.77,0,4.15,0,.1,0,.2,0,.37-.13-.13-.21-.2-.29-.27-.85-.85-1.7-1.71-2.56-2.56-.59-.58-1.42-.54-1.91.08-.41.52-.35,1.21.16,1.73,1.46,1.46,2.91,2.92,4.38,4.37.17.17.23.33.23.57-.01,1.1,0,2.2,0,3.3,0,.28.01.57.02.85-1.62,0-3.24.02-4.86,0-1.86-.01-3.55-.57-5.09-1.6-4.47-2.98-5.23-9.17-1.6-13.13,1.21-1.32,2.7-2.2,4.45-2.61.4-.09.72-.28.9-.64.1-.19.16-.4.23-.6.78-2.34,2.32-3.95,4.62-4.81.62-.23,1.29-.32,1.93-.48Z"/>
            <path class="cls-4" d="M185.88,84.66h2.48c0,1.72.02,3.44,0,5.16,0,.65-.59,1.16-1.25,1.15-.65,0-1.22-.51-1.23-1.15-.02-1.72,0-3.44,0-5.16Z"/>
          </g>
          <path class="cls-2" d="M62.31,115.74c4.14.9,7.06,4.63,6.93,8.87-.15,4.94-4.49,8.53-10.32,8.53h-3.5v5.03c0,.7-.56,1.26-1.26,1.26s-1.26-.56-1.26-1.26v-5.03h-4.71c-4.88,0-8.97-3.83-9.11-8.53-.13-4.25,2.79-7.98,6.93-8.87.4-.08.74-.47.88-.97.91-3.25,3.89-5.51,7.27-5.51s6.36,2.27,7.27,5.51c.14.5.49.89.88.97h0ZM66.73,124.53c.09-3.03-1.99-5.7-4.95-6.34-1.32-.28-2.38-1.34-2.78-2.75-.6-2.16-2.59-3.67-4.84-3.67s-4.24,1.51-4.84,3.67c-.39,1.42-1.46,2.47-2.78,2.75-2.96.64-5.04,3.3-4.95,6.34.1,3.36,3.06,6.09,6.6,6.09h4.71v-1.99l-4.66-4.66c-.49-.49-.49-1.29,0-1.78s1.29-.49,1.78,0l2.88,2.88v-4.51c0-.7.56-1.26,1.26-1.26s1.26.56,1.26,1.26v4.51l2.88-2.88c.49-.49,1.29-.49,1.78,0s.49,1.29,0,1.78l-4.66,4.66v1.99h3.5c4.49,0,7.7-2.5,7.81-6.09h0Z"/>
          <path class="cls-2" d="M135.32,128.57c-.47,1.49-.79,3.01-.97,4.56,0,3.47,2.81,6.28,6.28,6.28s6.28-2.81,6.28-6.28c-.17-1.55-.5-3.08-.97-4.56-3.86-2.2-6.77-2.2-10.63,0ZM152.01,128.09c-3.6-.28-7.4-3.87-11.38-3.75-2.41.2-4.74.94-6.82,2.17-2.53,1.26-4.97,2.49-7.05.63-.88-1-1.31-2.32-1.2-3.64,0-7.85,6.76-14.23,15.08-14.23s15.08,6.39,15.08,14.23c0,2.71-1.1,4.54-3.7,4.59Z"/>
          <path class="cls-2" d="M240.95,123.61c-.03,2.34-1.39,4.46-3.5,5.47l-.45.21c-.35.16-.75.12-1.06-.11l-.4-.3c-.76-.52-1.55-.98-2.37-1.38-.75-.37-1.61.27-1.48,1.09.23,1.53.39,3.07.46,4.62,0,3.47-2.81,6.29-6.29,6.29s-6.29-2.81-6.29-6.29c.08-1.55.23-3.1.47-4.63.12-.83-.73-1.46-1.48-1.09-.82.4-1.61.87-2.37,1.39l-.4.3c-.31.23-.71.27-1.06.11l-.45-.21c-2.11-1.01-3.47-3.13-3.5-5.47,0-7.87,6.77-14.28,15.09-14.28s15.09,6.41,15.09,14.28ZM227.48,126.52c-.1-.46-.49-.8-.96-.83-.22-.01-.44-.02-.66-.02-.22,0-.44,0-.66.02-.47.03-.86.37-.96.83-.46,2.19-.75,4.41-.89,6.65,0,.03,0,.06,0,.1.03,1.37,1.14,2.47,2.51,2.47s2.49-1.1,2.51-2.47c0-.03,0-.06,0-.1-.14-2.23-.44-4.46-.89-6.65ZM237.17,123.61c0-5.8-5.08-10.51-11.31-10.51s-11.31,4.71-11.31,10.51c0,0,0,.01,0,.02,0,.78.85,1.26,1.53.89,3-1.63,6.35-2.53,9.78-2.62,3.43.09,6.78.99,9.78,2.62.68.37,1.53-.11,1.54-.89,0,0,0-.01,0-.02Z"/>
        </g>
        <g>
          <path class="cls-2" d="M62.31,22.74c4.14.9,7.06,4.63,6.93,8.87-.15,4.94-4.49,8.53-10.32,8.53h-3.5v5.03c0,.7-.56,1.26-1.26,1.26s-1.26-.56-1.26-1.26v-5.03h-4.71c-4.88,0-8.97-3.83-9.11-8.53-.13-4.25,2.79-7.98,6.93-8.87.4-.08.74-.47.88-.97.91-3.25,3.89-5.51,7.27-5.51s6.36,2.27,7.27,5.51c.14.5.49.89.88.97h0ZM66.73,31.53c.09-3.03-1.99-5.7-4.95-6.34-1.32-.28-2.38-1.34-2.78-2.75-.6-2.16-2.59-3.67-4.84-3.67s-4.24,1.51-4.84,3.67c-.39,1.42-1.46,2.47-2.78,2.75-2.96.64-5.04,3.3-4.95,6.34.1,3.36,3.06,6.09,6.6,6.09h4.71v-1.99l-4.66-4.66c-.49-.49-.49-1.29,0-1.78s1.29-.49,1.78,0l2.88,2.88v-4.51c0-.7.56-1.26,1.26-1.26s1.26.56,1.26,1.26v4.51l2.88-2.88c.49-.49,1.29-.49,1.78,0s.49,1.29,0,1.78l-4.66,4.66v1.99h3.5c4.49,0,7.7-2.5,7.81-6.09h0Z"/>
          <path class="cls-2" d="M135.32,35.57c-.47,1.49-.79,3.01-.97,4.56,0,3.47,2.81,6.28,6.28,6.28s6.28-2.81,6.28-6.28c-.17-1.55-.5-3.08-.97-4.56-3.86-2.2-6.77-2.2-10.63,0ZM152.01,35.09c-3.6-.28-7.4-3.87-11.38-3.75-2.41.2-4.74.94-6.82,2.17-2.53,1.26-4.97,2.49-7.05.63-.88-1-1.31-2.32-1.2-3.64,0-7.85,6.76-14.23,15.08-14.23s15.08,6.39,15.08,14.23c0,2.71-1.1,4.54-3.7,4.59Z"/>
          <path class="cls-2" d="M240.95,30.61c-.03,2.34-1.39,4.46-3.5,5.47l-.45.21c-.35.16-.75.12-1.06-.11l-.4-.3c-.76-.52-1.55-.98-2.37-1.38-.75-.37-1.61.27-1.48,1.09.23,1.53.39,3.07.46,4.62,0,3.47-2.81,6.29-6.29,6.29s-6.29-2.81-6.29-6.29c.08-1.55.23-3.1.47-4.63.12-.83-.73-1.46-1.48-1.09-.82.4-1.61.87-2.37,1.39l-.4.3c-.31.23-.71.27-1.06.11l-.45-.21c-2.11-1.01-3.47-3.13-3.5-5.47,0-7.87,6.77-14.28,15.09-14.28s15.09,6.41,15.09,14.28ZM227.48,33.52c-.1-.46-.49-.8-.96-.83-.22-.01-.44-.02-.66-.02-.22,0-.44,0-.66.02-.47.03-.86.37-.96.83-.46,2.19-.75,4.41-.89,6.65,0,.03,0,.06,0,.1.03,1.37,1.14,2.47,2.51,2.47s2.49-1.1,2.51-2.47c0-.03,0-.06,0-.1-.14-2.23-.44-4.46-.89-6.65ZM237.17,30.61c0-5.8-5.08-10.51-11.31-10.51s-11.31,4.71-11.31,10.51c0,0,0,.01,0,.02,0,.78.85,1.26,1.53.89,3-1.63,6.35-2.53,9.78-2.62,3.43.09,6.78.99,9.78,2.62.68.37,1.53-.11,1.54-.89,0,0,0-.01,0-.02Z"/>
        </g>
      </g>
    </pattern>
  </defs>
  <g class="cls-7">
    <g id="Layer_2" data-name="Layer 2">
      <g id="Layer_3" data-name="Layer 3">
        <rect class="cls-3" width="228" height="267"/>
      </g>
    </g>
  </g>
</svg>